# xmcd CD database file
#
# Track frame offsets:
#	150
#	27435
#	55342
#	76639
#	98985
#	128421
#	144999
#	164771
#	183211
#	200429
#	213759
#	230311
#	256888
#	280422
#	294937
#	315953
#	335709
#	346190
#
# Disc length: 4791 seconds
#
# Revision: 0
# Processed by: cddbd v1.5.2PL0 Copyright (c) Steve Scherf et al.
# Submitted via: CDex 1.81
#
DISCID=f812b512
DTITLE=Herbie Mann - Milestones Of A Legend CD 8 - Salute To The Flute and Right Now
DYEAR=1957
DGENRE=Jazz
TTITLE0=When Lights Are Low
TTITLE1=Little Niles
TTITLE2=Old Honky Tonk Piano Roll Blues
TTITLE3=Pretty Baby
TTITLE4=Beautiful Love
TTITLE5=Hip Scotch
TTITLE6=Song For Ruth
TTITLE7=Noga's Nuggets
TTITLE8=A Ritual
TTITLE9=Carnival
TTITLE10=Borquinho
TTITLE11=Meditation
TTITLE12=Cool Heat
TTITLE13=Right Now
TTITLE14=Chalil
TTITLE15=Desafinado
TTITLE16=Free For All
TTITLE17=Jumpin' With Symphony Sid
EXTD=YEAR: 1957
EXTT0=
EXTT1=
EXTT2=
EXTT3=
EXTT4=
EXTT5=
EXTT6=
EXTT7=
EXTT8=
EXTT9=
EXTT10=
EXTT11=
EXTT12=
EXTT13=
EXTT14=
EXTT15=
EXTT16=
EXTT17=
PLAYORDER=
